<?xml version="1.0" standalone="no"?>
<!DOCTYPE svg PUBLIC "-//W3C//DTD SVG 20010904//EN"
 "http://www.w3.org/TR/2001/REC-SVG-20010904/DTD/svg10.dtd">
<svg version="1.0" xmlns="http://www.w3.org/2000/svg"
 width="750.000000pt" height="566.000000pt" viewBox="0 0 750.000000 566.000000"
 preserveAspectRatio="xMidYMid meet">

<g transform="translate(0.000000,566.000000) scale(0.100000,-0.100000)"
fill="#000000" stroke="none">
<path d="M0 5649 c0 -8 77 -10 258 -8 l257 3 10 -71 c6 -39 13 -74 16 -77 3
-3 2 18 -2 47 -4 28 -8 62 -8 75 -1 24 24 41 39 26 5 -5 19 -81 30 -169 23
-173 33 -222 56 -273 9 -18 19 -63 24 -100 4 -37 11 -77 15 -89 5 -14 3 -23
-3 -23 -6 0 -11 -21 -10 -50 0 -27 4 -50 9 -50 5 0 9 -7 9 -15 0 -8 -5 -15
-11 -15 -5 0 -8 -3 -6 -7 3 -5 8 -39 12 -78 3 -38 15 -128 25 -199 11 -71 20
-132 20 -136 0 -4 6 -8 13 -7 6 0 21 -1 32 -2 18 -2 18 -3 -3 -12 -13 -5 -28
-7 -33 -3 -5 3 -9 -1 -9 -8 0 -8 11 -14 28 -13 15 0 26 -4 26 -10 -1 -5 -5
-26 -9 -45 -4 -26 -3 -31 4 -20 10 13 11 13 12 0 1 -8 0 -21 -1 -29 -1 -9 5
-12 20 -8 14 3 28 -1 41 -14 20 -20 26 -49 10 -49 -5 0 -11 7 -15 15 -8 23
-25 18 -32 -10 -7 -28 18 -65 43 -65 7 0 13 -9 13 -20 0 -10 7 -23 16 -28 9
-5 17 -13 17 -18 1 -5 6 -8 11 -6 5 2 6 -4 3 -12 -4 -9 1 -19 10 -24 13 -8 10
-13 -16 -31 -17 -13 -31 -28 -30 -34 1 -7 -1 -20 -6 -30 -13 -31 3 -31 39 -1
28 23 35 36 35 67 1 26 5 37 16 37 11 0 15 -11 15 -42 0 -24 7 -49 17 -60 15
-16 15 -20 0 -35 -13 -16 -13 -20 0 -32 10 -9 13 -23 9 -42 -3 -16 -1 -29 4
-29 6 0 11 -19 11 -42 1 -24 4 -33 6 -21 2 12 17 28 34 35 16 7 29 16 29 20 0
5 5 8 10 8 6 0 10 -7 10 -16 0 -14 2 -15 17 -3 15 13 15 14 -2 17 -15 4 -17
13 -13 83 4 61 2 79 -9 79 -9 0 -13 13 -13 40 0 40 15 55 23 23 2 -10 2 -3 0
16 -4 31 -3 33 11 21 22 -17 23 -14 29 48 3 30 10 59 16 65 12 12 90 11 125
-3 13 -4 28 -21 34 -37 6 -15 21 -56 33 -90 21 -56 26 -62 59 -67 19 -3 56 -6
83 -6 44 0 47 2 42 23 -2 12 -6 57 -7 101 -3 78 -3 78 24 81 21 3 28 -2 37
-23 9 -24 28 -155 45 -303 6 -51 -5 -69 -40 -69 -12 0 -25 -6 -28 -12 -5 -10
-7 -10 -12 0 -7 14 -64 17 -64 2 0 -5 7 -7 15 -4 26 10 16 -10 -10 -23 -16 -7
-36 -8 -54 -3 -17 5 -33 4 -39 -2 -6 -6 -12 -6 -16 1 -4 6 -16 11 -28 11 -15
0 -18 -4 -13 -17 4 -10 8 -24 8 -31 1 -20 44 -27 177 -27 l125 0 2 -25 c9 -94
4 -210 -11 -239 -15 -29 -20 -31 -67 -31 -68 0 -261 29 -274 41 -14 14 -35 11
-35 -6 0 -22 -28 -18 -40 6 -8 14 -19 19 -38 17 -20 -2 -28 2 -31 17 -3 18
-45 65 -57 65 -3 0 -2 -22 2 -48 4 -35 2 -53 -8 -63 -23 -24 -38 -68 -38 -112
0 -56 -9 -87 -26 -87 -8 0 -14 -9 -14 -19 0 -11 -6 -22 -13 -24 -6 -3 3 -6 21
-6 30 -1 32 1 33 37 0 20 3 31 6 25 2 -7 11 -13 19 -13 8 0 14 -10 14 -25 0
-16 -6 -25 -16 -25 -12 0 -15 -11 -13 -52 2 -60 -13 -108 -36 -108 -8 0 -15
-7 -15 -16 0 -8 -5 -12 -11 -8 -10 6 -29 -12 -29 -28 0 -5 14 -8 30 -8 17 0
30 -4 30 -10 0 -5 -4 -10 -8 -10 -12 0 -13 -58 -1 -66 8 -4 7 -9 -2 -15 -11
-6 -11 -12 1 -34 15 -29 1 -56 -17 -33 -16 20 -25 68 -13 68 5 0 10 15 9 33
l-1 32 -10 -32 c-6 -18 -15 -33 -20 -33 -4 0 -1 -17 7 -37 12 -29 13 -38 3
-45 -10 -6 -10 -8 0 -8 7 0 12 -14 12 -37 0 -24 3 -33 8 -25 6 8 9 1 9 -20 l0
-32 -16 23 c-8 13 -16 31 -17 40 -1 9 -7 41 -12 71 -19 103 -24 150 -13 150 5
0 12 -10 14 -22 4 -20 4 -20 6 4 1 18 -5 29 -18 33 -18 6 -25 31 -37 155 -6
57 -45 230 -52 230 -8 0 5 -140 27 -295 23 -159 82 -557 111 -750 11 -71 33
-220 49 -330 17 -110 33 -215 37 -232 5 -26 3 -33 -8 -33 -19 0 -43 117 -93
440 -19 122 -26 142 -19 60 5 -65 11 -105 40 -275 8 -49 20 -122 25 -161 l11
-71 -32 -31 c-38 -38 -40 -39 -40 -8 0 40 -24 50 -108 47 -43 -1 -142 -3 -222
-4 -137 -2 -145 -3 -155 -24 l-11 -21 -9 21 c-10 22 -15 22 -235 23 -139 1
-230 -2 -237 -8 -15 -12 -19 -413 -4 -422 7 -5 682 -15 1013 -16 l117 0 6 -54
c6 -46 4 -57 -12 -73 -19 -19 -20 -19 -43 -1 -16 13 -21 25 -18 43 5 25 5 25
-61 23 l-66 -1 55 -6 c35 -4 55 -10 54 -18 -1 -7 -2 -17 -3 -22 -1 -9 -41 -11
-274 -14 -119 -2 -150 -5 -157 -17 -5 -8 -10 -103 -10 -211 0 -159 3 -199 14
-208 9 -7 41 -12 78 -11 183 4 273 -3 167 -14 -62 -7 -62 -9 6 -16 l60 -7 -62
-1 c-35 -1 -63 -6 -63 -10 0 -5 15 -7 33 -6 29 3 30 3 7 -5 l-25 -9 25 -2 c21
-2 19 -4 -10 -10 l-35 -7 35 -2 35 -2 -43 -15 c-34 -12 -47 -13 -58 -3 -12 9
-13 9 -9 -2 4 -12 -18 -14 -126 -14 -73 0 -138 -4 -145 -10 -15 -12 -21 -94
-8 -116 5 -9 18 -18 29 -21 18 -3 20 -12 22 -96 2 -56 -1 -92 -7 -92 -6 0 -11
15 -12 33 -1 17 -4 -2 -8 -43 l-6 -75 -3 75 c-2 58 -4 70 -12 52 -5 -13 -13
-21 -19 -17 -5 3 -23 -1 -39 -10 -17 -8 -52 -15 -79 -15 -27 0 -57 -6 -68 -15
-22 -17 -54 -20 -54 -5 0 6 -6 10 -14 10 -8 0 -17 7 -20 16 -5 12 -16 15 -49
12 -23 -3 -50 -8 -59 -12 -15 -7 -18 -3 -18 19 0 22 -3 25 -21 20 -15 -5 -22
-2 -26 14 -3 12 -12 21 -19 21 -11 0 -14 -29 -14 -150 l0 -150 3750 0 3750 0
0 1383 0 1384 -40 12 c-22 6 -40 18 -40 25 0 8 -6 14 -12 13 -7 0 -22 1 -33 2
-17 1 -17 3 -5 11 12 7 12 12 2 22 -6 6 -12 20 -12 30 0 15 -3 17 -19 8 -28
-15 -61 -12 -67 5 -7 17 -63 47 -75 39 -5 -3 -6 2 -3 11 8 20 -32 64 -60 66
-12 1 -3 5 19 8 38 6 40 8 40 41 0 33 -2 35 -37 38 -37 3 -38 4 -38 43 0 30 4
39 18 39 14 0 14 2 3 9 -8 5 -20 7 -27 4 -7 -2 -21 0 -31 5 -17 10 -17 11 0
17 21 9 23 25 2 25 -24 0 -65 23 -65 37 0 7 -13 25 -28 40 -43 42 -66 82 -86
148 -11 33 -25 69 -32 80 -12 21 -18 60 -30 200 -4 39 -11 73 -18 77 -8 6 -7
8 2 8 9 0 12 27 12 100 0 54 4 132 10 172 10 77 29 318 36 453 2 44 11 166 19
270 8 105 16 214 17 243 2 61 27 111 28 55 0 -38 25 -66 51 -58 18 6 19 0 19
-73 0 -44 -6 -163 -14 -264 -27 -342 -40 -612 -40 -838 0 -202 2 -233 22 -305
37 -133 85 -214 154 -259 21 -14 26 -21 18 -31 -6 -7 -8 -25 -4 -39 5 -21 16
-28 65 -42 34 -10 59 -22 59 -30 0 -7 17 -16 38 -20 20 -4 49 -15 64 -25 14
-11 33 -19 41 -19 9 0 23 -3 33 -7 16 -6 16 -7 -2 -14 -15 -6 -12 -8 14 -8
l32 -1 0 1285 0 1285 -3750 0 c-2697 0 -3750 -3 -3750 -11z m2908 -15 c13 -4
21 -12 18 -19 -3 -8 5 -15 19 -18 14 -2 22 0 19 5 -3 4 8 11 25 14 17 4 31 9
31 13 0 11 337 13 345 2 3 -6 2 -11 -3 -11 -21 0 -178 -79 -192 -97 -9 -10
-29 -28 -44 -41 -16 -12 -26 -25 -23 -28 3 -3 18 6 32 20 14 14 29 26 32 26 7
0 -5 -203 -14 -227 -4 -10 -13 -24 -20 -31 -20 -20 -18 -181 2 -188 8 -4 15
-12 15 -20 0 -8 7 -11 18 -8 14 5 14 3 -2 -10 -15 -12 -16 -16 -5 -16 10 -1 9
-3 -3 -11 -10 -5 -46 -9 -80 -7 l-63 3 -3 58 c-2 33 -8 57 -14 57 -7 0 -9 -19
-5 -59 l6 -58 -86 -2 c-48 -1 -93 -7 -99 -12 -13 -10 -24 -85 -16 -107 3 -8
15 -17 27 -22 23 -9 40 -46 24 -56 -5 -3 -9 2 -9 10 0 20 -53 56 -83 56 -28 0
-37 16 -37 64 0 52 -24 76 -78 77 -35 0 -42 3 -27 9 19 8 19 9 -2 9 -14 1 -23
7 -23 17 0 8 -5 12 -10 9 -6 -4 -8 -11 -5 -16 4 -5 -4 -9 -17 -9 -18 0 -20 -2
-8 -10 11 -7 0 -10 -38 -10 -28 0 -51 3 -50 8 2 11 -12 64 -22 83 -13 25 -3
29 80 29 68 0 80 3 104 25 14 13 26 34 26 45 0 12 4 18 10 15 6 -4 8 -15 5
-25 -3 -11 -1 -28 5 -40 9 -17 20 -20 68 -20 83 0 88 5 84 97 -4 99 7 205 19
197 6 -3 9 -61 8 -139 -1 -73 1 -137 5 -144 9 -14 154 -15 191 -1 24 9 26 14
23 61 -2 40 -8 55 -23 63 -11 6 -22 12 -24 13 -2 2 8 14 22 27 21 19 27 35 27
66 0 23 5 50 10 60 8 16 8 18 -5 14 -8 -4 -15 -10 -15 -14 0 -4 -12 -5 -27 -2
l-28 6 30 6 c28 5 30 8 33 56 5 81 25 76 -336 83 -35 0 -61 5 -58 10 3 5 -8
14 -24 21 -55 23 -37 39 48 43 156 6 187 7 210 1z m3802 -25 c0 -10 -6 -19
-14 -19 -9 0 -12 8 -8 25 5 28 22 24 22 -6z m-4358 -41 c-9 -9 -12 -7 -12 12
0 19 3 21 12 12 9 -9 9 -15 0 -24z m1211 15 c-2 -7 3 -14 10 -15 27 -3 -124
-16 -205 -17 -87 -1 -122 11 -70 24 104 26 269 31 265 8z m2897 -18 c0 -8 -4
-15 -10 -15 -5 0 -10 7 -10 15 0 8 5 15 10 15 6 0 10 -7 10 -15z m245 5 c-3
-5 -10 -10 -16 -10 -5 0 -9 5 -9 10 0 6 7 10 16 10 8 0 12 -4 9 -10z m-4150
-30 c3 -5 1 -10 -4 -10 -6 0 -11 5 -11 10 0 6 2 10 4 10 3 0 8 -4 11 -10z
m2982 -46 c21 -27 23 -38 23 -162 l0 -134 -29 -29 c-25 -24 -38 -29 -80 -29
-75 0 -103 28 -111 111 -4 35 -4 102 -1 148 6 76 9 85 36 108 25 22 36 25 84
21 45 -4 58 -10 78 -34z m-4527 -33 c0 -54 12 -83 27 -67 4 3 5 33 4 66 l-2
60 51 0 50 0 -2 -187 -3 -188 -45 0 -45 0 -1 75 c-1 56 -5 75 -15 75 -10 0
-15 -20 -19 -75 l-5 -75 -38 -3 c-31 -3 -38 0 -45 20 -6 16 -8 330 -3 356 1 1
21 2 46 2 l45 0 0 -59z m335 24 c0 -25 -5 -31 -30 -35 -25 -4 -31 -10 -33 -37
-3 -28 0 -32 25 -35 25 -3 28 -7 28 -38 0 -31 -3 -35 -27 -38 -25 -3 -28 -7
-28 -43 0 -38 1 -39 36 -39 35 0 35 -1 32 -37 l-3 -38 -80 0 -80 0 -3 188 -2
188 82 -3 83 -3 0 -30z m315 1 c0 -30 -3 -35 -27 -38 l-28 -3 -3 -153 -3 -153
-42 3 -42 3 -5 150 -5 150 -27 3 c-25 3 -28 8 -28 38 l0 34 105 0 105 0 0 -34z
m193 25 c31 -12 40 -38 40 -113 0 -69 -18 -96 -72 -100 l-36 -3 -5 -75 -5 -75
-34 -2 c-59 -5 -61 1 -61 192 0 94 3 175 7 178 10 10 138 8 166 -2z m247 -1
c0 -6 11 -88 26 -182 15 -104 22 -174 16 -180 -5 -5 -27 -8 -48 -6 -36 3 -39
6 -42 36 -2 23 -8 32 -22 32 -14 0 -20 -9 -22 -32 -3 -31 -6 -33 -46 -36 -31
-2 -44 1 -48 13 -4 8 4 94 17 190 l23 175 73 0 c43 0 73 -4 73 -10z m270 -24
c0 -30 -3 -35 -27 -38 l-28 -3 -5 -150 -5 -150 -45 0 -45 0 -3 152 -3 152 -27
3 c-27 3 -39 25 -28 54 4 11 28 14 111 14 l105 0 0 -34z m120 -31 l0 -65 45 0
c71 0 85 -21 85 -124 0 -62 -4 -89 -15 -100 -17 -17 -99 -29 -165 -24 l-45 3
-3 188 -2 187 50 0 50 0 0 -65z m360 30 c0 -31 -3 -35 -25 -35 -19 0 -25 -5
-26 -22 0 -13 -1 -78 -1 -146 -1 -75 -6 -126 -12 -131 -6 -5 -27 -9 -46 -8
l-35 2 -5 150 -5 150 -27 3 c-25 3 -28 8 -28 38 l0 34 105 0 105 0 0 -35z
m190 1 c0 -32 -3 -35 -32 -38 -29 -3 -33 -7 -34 -35 -1 -29 1 -32 30 -35 28
-3 31 -6 31 -38 0 -31 -3 -35 -30 -40 -27 -5 -30 -9 -30 -40 0 -32 3 -35 33
-38 37 -4 47 -20 38 -57 -6 -25 -8 -26 -84 -23 l-77 3 -3 188 -2 187 80 0 80
0 0 -34z m380 -110 c0 -86 4 -147 10 -151 6 -3 10 -37 10 -76 l0 -69 -35 0
c-32 0 -35 2 -35 29 l0 29 -75 4 -74 3 -3 -30 c-3 -26 -8 -30 -35 -33 l-33 -3
0 66 c0 40 6 74 14 88 20 31 36 127 36 214 l0 73 110 0 110 0 0 -144z m218
112 c-3 -28 -8 -34 -33 -38 -25 -4 -31 -10 -33 -37 -3 -28 0 -32 25 -35 25 -3
28 -7 28 -38 0 -31 -3 -35 -27 -38 -25 -3 -28 -7 -28 -42 0 -36 2 -39 33 -42
29 -3 32 -6 32 -38 l0 -35 -80 0 -80 0 -3 188 -2 187 85 0 86 0 -3 -32z m132
-34 c0 -48 3 -65 13 -62 7 3 13 28 15 66 l3 62 49 0 50 0 0 -185 0 -185 -24
-6 c-13 -3 -35 -4 -47 -2 -23 3 -24 8 -27 81 -2 58 -6 77 -17 77 -11 0 -15
-19 -17 -77 l-3 -78 -45 0 -45 0 -3 188 -2 187 50 0 50 0 0 -66z m268 -1 l3
-63 44 0 c70 0 85 -21 85 -123 0 -113 -8 -120 -133 -121 l-92 -1 -3 188 -2
188 47 -3 48 -3 3 -62z m337 32 c0 -27 -4 -31 -35 -35 l-35 -5 -5 -150 c-5
-148 -5 -150 -29 -153 -12 -2 -34 -1 -47 2 l-24 6 0 186 0 185 88 -3 87 -3 0
-30z m105 -37 c0 -39 3 -68 8 -64 4 4 16 35 28 69 21 62 21 62 63 65 l41 3 -2
-188 -3 -188 -37 -3 -38 -3 0 70 c0 39 -4 71 -8 71 -5 0 -14 -24 -21 -52 -21
-82 -27 -90 -69 -86 l-37 3 -3 188 -2 187 40 0 40 0 0 -72z m360 7 c0 -51 3
-65 15 -65 12 0 15 14 15 65 l0 65 50 0 50 0 -2 -187 -3 -188 -45 0 -45 0 -3
78 c-2 58 -6 77 -17 77 -11 0 -15 -19 -17 -77 l-3 -78 -45 0 -45 0 -3 188 -2
187 50 0 50 0 0 -65z m344 43 c17 -82 47 -330 42 -343 -4 -12 -16 -15 -43 -13
-33 3 -39 7 -48 36 -12 41 -38 39 -45 -3 -4 -27 -10 -30 -44 -33 -21 -2 -43 1
-48 6 -6 6 -2 69 12 168 30 228 18 204 100 204 64 0 70 -2 74 -22z m676 -122
c0 -86 4 -147 10 -151 6 -3 10 -38 10 -76 l0 -70 -32 3 c-28 2 -34 8 -36 31
-3 27 -8 29 -57 29 -91 0 -94 -1 -97 -29 -2 -23 -8 -29 -35 -31 l-33 -3 0 69
c0 48 4 73 14 81 18 15 36 118 36 208 0 38 3 73 7 76 3 4 53 7 110 7 l103 0 0
-144z m220 110 c0 -32 -3 -35 -32 -38 -30 -3 -33 -6 -33 -38 0 -30 3 -35 24
-35 19 0 26 -7 32 -30 9 -32 -1 -45 -38 -45 -20 0 -23 -5 -23 -40 0 -39 1 -40
36 -40 35 0 35 -1 32 -37 l-3 -38 -80 0 -80 0 -3 175 c-1 96 0 180 2 187 4 9
29 13 86 13 l80 0 0 -34z m112 -38 c2 -46 7 -73 16 -76 9 -3 12 16 12 72 l0
76 50 0 50 0 0 -76 c0 -56 3 -75 13 -72 7 3 14 31 17 74 l5 69 40 3 40 3 -3
-78 c-3 -64 -7 -81 -24 -92 l-20 -15 20 -15 c17 -13 21 -30 24 -96 3 -87 -3
-95 -58 -81 -23 6 -24 10 -24 81 0 59 -3 75 -15 75 -11 0 -15 -17 -17 -76 l-3
-77 -30 -3 c-60 -7 -65 0 -65 83 0 55 -3 74 -12 71 -8 -3 -14 -30 -16 -74 -3
-73 -10 -84 -54 -84 l-28 0 0 80 c0 67 3 83 20 97 19 17 19 17 0 35 -17 16
-20 32 -20 93 l0 75 40 0 39 0 3 -72z m529 65 c1 -5 2 -70 3 -145 2 -91 6
-141 15 -151 7 -10 11 -38 9 -74 -3 -57 -3 -58 -35 -61 -31 -3 -33 -1 -33 26
0 28 -3 30 -42 33 -24 2 -60 3 -80 1 -35 -3 -38 -6 -38 -33 0 -28 -2 -30 -32
-27 l-33 3 -3 65 c-2 49 1 67 12 76 20 14 35 86 43 200 l6 94 104 0 c56 0 104
-3 104 -7z m122 -15 c3 -13 9 -53 12 -90 9 -84 25 -89 25 -9 0 32 3 73 6 90 6
28 10 31 45 31 22 0 39 -4 39 -9 0 -47 -33 -302 -41 -324 -12 -29 -32 -37
-100 -40 -35 -2 -44 2 -47 16 -2 10 4 24 14 32 17 12 17 19 -9 157 -15 80 -27
150 -27 156 0 7 16 12 39 12 32 0 40 -4 44 -22z m-4273 -48 c0 -5 -5 -10 -11
-10 -5 0 -7 5 -4 10 3 6 8 10 11 10 2 0 4 -4 4 -10z m1559 -1 c28 -10 43 -29
22 -29 -13 0 -81 29 -81 35 0 8 25 6 59 -6z m2960 -73 c-7 -20 -16 -36 -19
-36 -4 0 -7 -17 -8 -37 -2 -40 -12 -51 -45 -47 -12 1 -26 3 -31 3 -11 1 1 96
19 135 13 30 13 30 15 6 1 -16 4 -19 7 -10 3 8 15 23 27 32 18 14 23 15 35 4
11 -12 11 -20 0 -50z m-4429 2 l0 -33 -15 29 c-18 35 -18 36 0 36 10 0 15 -10
15 -32z m-300 -105 c1 -97 4 -133 15 -147 10 -13 15 -43 15 -83 0 -61 -1 -63
-25 -63 -16 0 -26 6 -27 18 -4 41 -5 58 -7 80 0 12 -5 22 -11 22 -6 0 -10 -27
-10 -61 0 -95 -36 -64 -39 34 -1 33 2 37 24 37 37 0 45 28 45 164 0 77 4 126
10 126 6 0 10 -49 10 -127z m4110 72 c0 -19 -4 -35 -10 -35 -11 0 -13 30 -4
54 10 25 14 19 14 -19z m-5023 -60 c17 -12 21 -27 25 -87 2 -39 9 -73 15 -75
38 -13 42 -28 53 -178 6 -82 17 -215 25 -295 28 -281 28 -300 12 -300 -17 0
-47 26 -47 41 0 5 -5 9 -11 9 -7 0 -9 -12 -5 -36 9 -44 -7 -66 -40 -58 -13 4
-31 1 -39 -6 -8 -7 -23 -9 -37 -4 -13 4 -68 7 -123 5 -137 -3 -140 0 -150 204
-3 55 -9 129 -15 165 -5 36 -12 97 -15 135 -4 39 -13 111 -20 160 -19 127 -15
141 44 148 26 3 90 3 142 0 106 -6 115 -2 120 57 4 57 -8 80 -42 80 -38 0 -37
11 4 31 42 21 77 23 104 4z m2191 -23 c2 -7 -6 -12 -17 -12 -21 0 -27 11 -14
24 9 9 26 2 31 -12z m2442 -2 c0 -5 -6 -10 -14 -10 -8 0 -18 5 -21 10 -3 6 3
10 14 10 12 0 21 -4 21 -10z m963 -84 c-3 -36 -25 -76 -43 -76 -10 0 -22 98
-14 111 3 6 18 9 32 7 25 -3 27 -7 25 -42z m-2696 -49 c-4 -12 -2 -29 3 -37 5
-8 5 -21 -1 -33 -8 -13 -7 -23 3 -35 7 -9 8 -13 2 -9 -7 4 -14 -2 -17 -13 -3
-12 -14 -20 -26 -20 -19 0 -21 6 -21 62 0 56 3 65 28 85 34 28 35 28 29 0z
m-162 3 c3 -5 17 -10 30 -10 49 0 55 -8 55 -75 l0 -63 -34 -6 c-20 -4 -37 -15
-44 -29 -8 -17 -11 -18 -11 -5 -1 10 -9 22 -18 27 -24 12 -222 12 -245 0 -16
-9 -18 -27 -18 -208 0 -147 3 -201 13 -209 7 -6 81 -11 186 -11 96 -1 176 -3
179 -6 3 -2 5 -30 6 -61 1 -32 6 -59 11 -61 6 -2 10 21 9 57 0 34 3 63 7 66
17 10 37 -9 34 -32 -2 -20 2 -24 24 -23 14 0 20 3 14 6 -18 7 -16 20 2 20 17
0 17 -1 19 -39 1 -15 -2 -24 -6 -22 -4 3 -8 0 -8 -5 0 -6 -4 -11 -10 -11 -5 0
-10 9 -10 20 0 11 -4 20 -9 20 -5 0 -8 -8 -6 -17 2 -10 4 -24 4 -32 1 -11 15
-13 70 -8 77 6 95 -3 89 -45 -4 -26 -31 -35 -121 -37 -34 -1 -56 -5 -52 -11 3
-5 12 -7 21 -3 12 4 13 1 4 -22 -14 -37 -13 -48 5 -41 19 7 35 -30 35 -82 0
-61 12 -115 21 -100 5 7 9 27 9 43 1 29 2 29 11 7 5 -13 9 -38 8 -55 0 -18 2
-52 4 -77 7 -65 -1 -98 -27 -103 -11 -2 0 -5 25 -6 42 -1 47 -4 52 -28 7 -39
-1 -53 -33 -53 -49 0 -59 -8 -50 -40 5 -16 6 -39 3 -50 -3 -12 1 -26 10 -33
13 -11 12 -21 -5 -92 -11 -44 -22 -83 -26 -87 -4 -4 -20 -9 -37 -13 -27 -6
-28 -5 -12 8 18 15 23 37 8 37 -6 0 -9 19 -8 43 2 31 -2 42 -13 42 -8 0 -16
-9 -19 -20 -3 -17 -1 -18 13 -6 10 9 16 10 16 2 0 -6 -3 -11 -7 -11 -5 0 -21
-11 -37 -25 -28 -24 -29 -26 -10 -40 18 -13 18 -14 -5 -8 -16 4 -22 2 -18 -5
4 -5 2 -12 -4 -14 -10 -3 -13 -13 -18 -61 -1 -5 -11 -5 -23 -1 -20 6 -21 5 -9
-10 7 -9 20 -16 27 -16 8 0 14 -6 14 -14 0 -29 -21 -27 -46 3 -14 17 -33 31
-42 32 -10 0 -2 5 16 10 29 9 45 29 22 29 -5 0 -10 -4 -10 -10 0 -5 -11 -10
-24 -10 -14 0 -28 -4 -31 -10 -3 -5 -23 -9 -43 -9 -114 0 -333 -16 -302 -22
27 -5 18 -7 -40 -8 -41 -2 -100 -6 -130 -10 -58 -9 -74 -6 -50 9 8 5 -6 8 -41
8 -72 -1 -200 10 -207 17 -3 3 10 5 29 5 l34 0 -35 18 c-19 9 -36 14 -38 10
-8 -17 -24 -7 -19 12 6 24 -12 38 -25 19 -7 -10 -9 -8 -5 8 3 12 -4 35 -14 52
-24 40 -43 110 -48 182 -1 14 -14 16 -91 14 -87 -3 -90 -2 -96 20 -3 13 -4 34
-2 46 3 26 0 25 117 28 30 0 51 4 48 8 -4 3 -29 5 -57 4 -44 -1 -50 1 -50 19
0 18 7 20 54 20 34 0 56 -5 59 -12 3 -8 6 -6 6 5 1 9 -6 17 -14 17 -8 0 -15 5
-15 11 0 6 7 9 15 5 18 -6 18 14 8 232 l-6 142 -99 0 -98 0 0 39 c0 46 9 51
99 54 61 1 61 1 61 32 1 25 2 27 11 12 18 -30 27 -10 16 37 -5 24 -7 52 -2 62
7 18 8 18 15 -1 5 -11 9 -48 9 -82 1 -52 4 -63 17 -63 15 0 16 10 11 83 -5 75
-4 85 14 100 28 25 23 117 -7 117 -19 0 -18 24 1 40 9 7 15 29 15 51 0 20 -7
44 -15 53 -8 8 -15 19 -15 24 0 6 7 12 15 16 11 4 15 20 15 56 0 44 -3 52 -25
62 -19 9 -25 19 -25 45 0 19 6 36 14 39 8 3 16 18 20 35 5 27 9 29 50 29 41 0
45 -2 51 -30 7 -32 32 -44 80 -38 27 3 38 14 48 49 5 15 39 16 329 16 221 0
331 4 344 11 24 14 31 15 39 2z m-1954 -20 c18 0 20 -5 16 -47 -3 -40 -7 -49
-25 -51 -16 -3 -20 1 -16 12 3 8 -1 25 -10 38 -21 30 -21 62 0 54 9 -3 25 -6
35 -6z m-296 -9 c3 -5 1 -12 -5 -16 -5 -3 -10 1 -10 9 0 18 6 21 15 7z m4159
-8 c-7 -7 -14 -17 -16 -22 -6 -16 -108 -17 -119 0 -21 34 -11 39 69 37 62 -2
76 -6 66 -15z m89 10 c-7 -3 -13 -11 -13 -19 0 -20 -17 -18 -29 4 -8 14 -4 17
23 18 17 1 25 -1 19 -3z m164 1 c-3 -3 -12 -4 -19 -1 -8 3 -5 6 6 6 11 1 17
-2 13 -5z m-1180 -61 c-3 -10 -5 -4 -5 12 0 17 2 24 5 18 2 -7 2 -21 0 -30z
m-3227 7 c0 -5 -4 -10 -10 -10 -5 0 -10 5 -10 10 0 6 5 10 10 10 6 0 10 -4 10
-10z m3227 -52 c-3 -8 -6 -5 -6 6 -1 11 2 17 5 13 3 -3 4 -12 1 -19z m-2577
-2 c0 -3 -4 -8 -10 -11 -5 -3 -10 -1 -10 4 0 6 5 11 10 11 6 0 10 -2 10 -4z
m2370 -52 c38 -10 50 -57 50 -187 0 -119 -1 -127 -25 -155 -32 -38 -88 -50
-138 -29 -53 23 -61 45 -61 187 -1 104 2 131 17 153 26 40 84 52 157 31z
m-3110 -34 c0 -36 -3 -40 -25 -40 l-24 0 -3 -147 -3 -148 -47 -3 -48 -3 0 150
0 150 -27 3 c-20 2 -29 9 -31 26 -7 48 1 52 108 52 l100 0 0 -40z m188 29 c35
-12 52 -49 52 -113 0 -62 -18 -88 -68 -101 l-44 -10 -1 -70 -2 -70 -47 -3 -48
-3 0 190 0 191 64 0 c34 0 77 -5 94 -11z m246 2 c7 -10 56 -323 56 -353 0 -17
-6 -19 -47 -16 -44 3 -48 5 -53 33 -7 41 -34 40 -38 -2 -3 -32 -4 -33 -54 -33
l-51 0 6 43 c3 23 14 105 23 182 10 77 22 143 28 147 16 11 124 10 130 -1z
m271 -31 c0 -31 -3 -35 -27 -38 l-28 -3 0 -150 0 -150 -47 3 -48 3 -3 148 c-3
147 -3 147 -26 147 -18 0 -25 7 -29 27 -10 51 -3 54 107 51 l101 -3 0 -35z
m123 -27 c3 -62 3 -63 32 -63 35 0 82 -17 92 -33 4 -7 8 -50 8 -96 0 -117 -5
-121 -132 -121 l-98 0 0 183 c0 101 3 187 7 191 4 4 25 6 48 4 l40 -3 3 -62z
m368 52 c4 -8 3 -26 0 -40 -5 -18 -13 -25 -31 -25 l-25 0 0 -150 0 -150 -50 0
-49 0 -3 147 -3 147 -25 6 c-25 6 -37 36 -26 66 8 21 204 20 212 -1z m184 -25
c0 -38 -2 -40 -30 -40 -28 0 -30 -3 -30 -35 0 -32 2 -35 30 -35 28 0 30 -3 30
-35 0 -32 -2 -35 -31 -35 -29 0 -30 -1 -27 -42 2 -30 8 -43 18 -44 49 -3 50
-4 50 -39 l0 -35 -85 0 -85 0 0 183 c0 101 3 187 7 190 3 4 39 7 80 7 l73 0 0
-40z m792 -27 c2 -42 8 -68 16 -71 8 -2 12 11 12 45 0 84 7 94 54 91 l41 -3 3
-187 2 -188 -45 0 c-25 0 -46 3 -46 8 -1 4 -3 39 -4 77 -1 53 -5 70 -16 70
-11 0 -15 -19 -17 -77 l-3 -78 -44 0 -45 0 0 183 c0 101 3 187 7 190 3 4 23 7
44 7 l38 0 3 -67z m365 -88 c12 -82 24 -167 27 -187 l6 -38 -49 0 c-49 0 -50
1 -53 33 -2 20 -8 32 -17 32 -8 0 -19 -15 -23 -32 -8 -31 -11 -33 -53 -33 -24
0 -46 3 -48 8 -4 8 39 338 48 360 3 9 23 12 72 10 l68 -3 22 -150z m361 -37
l2 -188 -50 0 -50 0 0 150 c0 127 -2 150 -15 150 -13 0 -15 -23 -15 -150 l0
-150 -50 0 -50 0 0 183 c0 101 3 187 7 191 4 3 54 5 112 4 l106 -3 3 -187z
m467 152 c0 -32 -3 -35 -32 -38 -30 -3 -33 -6 -33 -38 0 -31 2 -34 30 -34 28
0 30 -3 30 -35 0 -32 -2 -35 -31 -35 -29 0 -30 -1 -27 -42 3 -40 5 -43 36 -46
29 -3 32 -6 32 -38 l0 -34 -85 0 -85 0 0 183 c0 101 3 187 7 191 4 4 41 5 83
4 l75 -3 0 -35z m220 15 c30 -29 35 -104 10 -125 -14 -11 -14 -15 -1 -29 8 -9
18 -39 21 -67 10 -73 -13 -120 -66 -134 -88 -24 -147 13 -151 96 l-3 49 45 0
45 0 5 -45 c7 -63 24 -56 28 11 3 55 2 57 -28 67 -38 14 -39 40 0 53 26 10 30
16 30 50 0 46 -27 56 -32 12 -3 -26 -6 -28 -48 -28 l-45 0 2 40 c4 56 30 75
105 75 49 0 63 -4 83 -25z m323 -120 c1 -77 7 -144 12 -149 6 -6 10 -41 10
-78 0 -54 -3 -70 -16 -75 -24 -9 -49 10 -52 41 -3 25 -5 26 -77 26 l-74 0 -3
-32 c-3 -29 -6 -33 -33 -33 l-30 0 -3 69 c-2 50 1 71 11 80 19 15 26 47 37
173 5 57 12 108 15 114 4 6 47 9 103 7 l97 -3 3 -140z m160 62 c3 -84 21 -99
23 -19 2 83 9 97 54 97 l40 0 3 -72 c2 -63 0 -75 -19 -94 -21 -21 -22 -22 -3
-36 15 -11 20 -29 23 -93 l3 -80 -41 0 c-35 0 -43 4 -51 26 -6 14 -10 47 -10
74 0 75 -20 73 -22 -2 0 -35 -1 -70 -2 -78 -1 -11 -14 -15 -51 -15 l-49 0 3
180 c1 98 5 183 8 188 3 4 24 7 46 5 l42 -3 3 -78z m230 11 c2 -38 7 -68 11
-68 5 0 17 29 27 65 20 68 35 82 81 73 17 -3 18 -18 21 -191 l2 -187 -39 0
-40 0 -3 73 -3 72 -23 -73 -23 -73 -42 3 -42 3 -3 175 c-1 96 0 180 3 188 3 8
17 12 37 10 l33 -3 3 -67z m279 -55 c-3 -10 -5 -4 -5 12 0 17 2 24 5 18 2 -7
2 -21 0 -30z m-3580 -245 c-3 -8 -6 -5 -6 6 -1 11 2 17 5 13 3 -3 4 -12 1 -19z
m68 -48 c22 -4 31 -8 20 -9 -20 -2 -20 -2 -1 -16 14 -11 16 -15 5 -15 -11 0
-11 -2 -1 -9 11 -7 10 -9 -3 -15 -11 -4 -14 -12 -10 -25 3 -10 1 -30 -4 -43
-9 -23 -7 -25 15 -20 13 2 24 9 24 16 0 6 5 4 10 -4 15 -23 12 -83 -6 -118
-15 -31 -34 -43 -34 -22 0 6 5 10 10 10 6 0 10 5 10 10 0 17 -24 11 -37 -8
-16 -26 -1 -44 33 -40 27 3 29 0 32 -32 2 -26 0 -31 -8 -20 -8 12 -10 11 -10
-6 0 -12 7 -27 15 -34 8 -7 15 -18 15 -25 0 -7 -7 -15 -15 -19 -9 -3 -15 -18
-15 -36 0 -17 -5 -29 -11 -28 -6 2 -14 -3 -17 -11 -3 -10 0 -12 11 -8 11 4 17
-2 22 -24 4 -17 4 -33 1 -36 -3 -4 -6 3 -6 15 0 15 -6 22 -19 22 -15 0 -21 -8
-24 -32 -4 -33 -7 15 -7 101 0 19 -6 44 -13 55 -16 26 -21 92 -8 101 6 3 8 12
5 20 -3 7 0 24 6 36 11 19 10 24 -4 35 -12 9 -14 14 -6 19 9 5 9 10 1 14 -5 4
-12 32 -15 64 -2 31 -7 61 -10 66 -4 5 -1 13 6 18 7 4 14 16 14 25 1 10 -1 16
-5 13 -4 -2 -16 5 -25 17 -18 20 -18 21 0 13 11 -4 37 -11 59 -15z m-2150 -21
c4 -12 2 -26 -4 -32 -8 -8 -11 -7 -11 5 0 9 -3 23 -6 32 -3 9 -1 16 4 16 6 0
14 -9 17 -21z m1970 11 c17 -7 17 -9 3 -9 -10 -1 -18 -5 -18 -11 0 -5 -8 -10
-17 -10 -16 1 -16 2 2 12 19 12 18 13 -10 19 -27 6 -27 7 -5 7 14 0 34 -3 45
-8z m232 -22 c-3 -8 -6 -5 -6 6 -1 11 2 17 5 13 3 -3 4 -12 1 -19z m2190 -15
c-3 -10 -5 -4 -5 12 0 17 2 24 5 18 2 -7 2 -21 0 -30z m-2147 -23 c0 -5 -4
-10 -10 -10 -5 0 -10 5 -10 10 0 6 5 10 10 10 6 0 10 -4 10 -10z m1580 -40 c0
-6 -7 -13 -15 -16 -8 -4 -15 -10 -15 -15 0 -5 7 -9 15 -9 19 0 20 -26 1 -33
-25 -10 -45 15 -39 51 4 26 10 32 29 32 13 0 24 -5 24 -10z m1407 -100 c-3
-11 -1 -18 4 -15 15 10 79 -7 79 -21 0 -8 15 -14 43 -16 35 -2 43 -7 45 -25 3
-20 9 -23 48 -23 33 0 47 5 56 20 7 11 20 20 30 20 9 0 18 5 20 12 2 6 12 -5
21 -24 9 -20 25 -38 35 -40 17 -5 19 -14 15 -74 -5 -100 -12 -131 -30 -138 -9
-4 -61 -2 -117 4 -56 5 -117 10 -136 9 -62 -2 -194 3 -212 8 -15 4 -18 16 -18
79 0 94 26 215 44 208 8 -3 16 4 19 15 4 15 13 21 32 21 22 0 26 -4 22 -20z
m-4997 -81 c0 -20 -15 -26 -24 -10 -8 13 4 42 15 35 5 -3 9 -14 9 -25z m1579
-6 c9 -7 11 -13 5 -13 -15 0 -16 -317 -2 -495 6 -77 10 -157 9 -177 -1 -20 3
-56 9 -80 16 -65 22 -158 10 -158 -5 0 -10 6 -10 14 0 8 -9 31 -21 50 -24 41
-29 63 -35 166 -3 41 -7 86 -10 100 -8 32 -8 227 0 260 7 36 15 159 16 275 1
55 4 93 7 85 4 -8 13 -20 22 -27z m-1519 18 c0 -6 -4 -13 -10 -16 -5 -3 -10 1
-10 9 0 9 5 16 10 16 6 0 10 -4 10 -9z m4625 -131 c-1 -72 -5 -133 -8 -136 -3
-3 -11 -3 -18 1 -8 5 -9 25 -5 62 9 78 28 203 31 203 1 0 1 -59 0 -130z
m-4722 87 c-3 -5 -10 -4 -15 1 -6 6 -7 16 -3 22 6 9 9 9 16 -1 4 -7 5 -17 2
-22z m5797 -61 c0 -64 -12 -117 -24 -113 -6 2 -20 0 -31 -6 -11 -6 -63 -14
-115 -18 -52 -4 -104 -9 -115 -11 -16 -2 -21 4 -24 32 -4 33 -4 33 -11 10 -6
-17 -8 -4 -8 40 1 56 2 59 8 25 l6 -40 8 40 c15 78 10 74 92 73 42 0 78 3 81
6 4 3 35 6 70 5 l63 -2 0 -41z m-4025 -141 c8 -65 3 -75 -34 -75 -32 0 -41 18
-41 88 0 41 1 42 34 42 33 0 34 -1 41 -55z m465 -15 c0 -5 -5 -10 -11 -10 -5
0 -7 5 -4 10 3 6 8 10 11 10 2 0 4 -4 4 -10z m-2153 -72 c-2 -13 -4 -3 -4 22
0 25 2 35 4 23 2 -13 2 -33 0 -45z m1983 52 c0 -5 -4 -10 -10 -10 -5 0 -10 5
-10 10 0 6 5 10 10 10 6 0 10 -4 10 -10z m3735 -317 c4 -13 3 -23 -1 -23 -14
0 -34 50 -35 84 l-1 31 -11 -30 c-26 -66 -50 -83 -152 -104 -27 -6 -70 -12
-95 -13 -25 -2 -48 -7 -52 -13 -5 -6 -8 -4 -8 5 0 13 -1 13 -11 0 -8 -11 -9 0
-4 40 3 30 8 96 12 145 5 86 22 153 23 95 l0 -25 13 25 c12 25 14 25 140 25
70 0 127 -4 127 -8 0 -5 4 -6 9 -3 5 3 13 27 17 53 7 40 10 22 15 -107 3 -85
10 -165 14 -177z m-3643 267 c4 -24 1 -30 -13 -30 -12 0 -17 5 -14 15 3 8 7
22 10 30 7 23 12 18 17 -15z m-373 -26 c2 -2 -7 -13 -20 -25 l-24 -21 23 5
c23 5 24 5 26 -60 1 -36 -1 -38 -33 -41 -28 -3 -33 -1 -27 14 3 9 1 23 -5 30
-6 8 -9 27 -6 43 3 16 1 33 -6 40 -9 10 -8 15 7 26 17 13 42 9 65 -11z m1831
-8 c0 -8 -6 -16 -12 -19 -9 -3 -7 -10 7 -21 17 -13 18 -17 5 -26 -25 -16 -35
-6 -38 38 -3 37 -1 42 17 42 12 0 21 -6 21 -14z m1600 0 c103 -9 169 -10 177
-4 21 17 24 -11 14 -144 -6 -73 -11 -138 -11 -145 0 -19 -75 -16 -210 7 -63
12 -124 20 -135 19 -22 -2 -68 7 -102 21 -35 14 -54 64 -56 145 -1 87 8 102
66 108 78 7 92 6 257 -7z m-466 -145 c-4 -61 -11 -108 -16 -105 -5 3 -6 40 -4
82 3 42 6 97 6 122 0 35 3 41 11 28 6 -10 7 -60 3 -127z m-2674 109 c0 -5 -2
-10 -4 -10 -3 0 -8 5 -11 10 -3 6 -1 10 4 10 6 0 11 -4 11 -10z m2639 -48 c-1
-72 -13 -148 -21 -136 -15 22 -21 150 -9 173 18 32 31 16 30 -37z m-2674 -13
c0 -39 -3 -44 -24 -47 -13 -2 -28 1 -34 7 -7 7 -14 7 -24 0 -9 -8 -13 -8 -13
0 0 6 5 11 10 11 6 0 10 15 10 33 0 42 15 57 48 48 24 -7 27 -12 27 -52z m204
-91 c0 -18 -3 -28 -5 -21 -4 8 -12 8 -31 -2 -15 -8 -31 -11 -37 -7 -7 4 -4 8
7 10 10 2 16 11 15 20 -2 9 7 18 22 23 14 4 26 7 28 8 1 1 2 -14 1 -31z m-89
-44 c0 -14 -4 -23 -10 -19 -5 3 -10 15 -10 26 0 10 5 19 10 19 6 0 10 -12 10
-26z m95 -34 c-7 -31 -7 -31 -22 -11 -8 12 -11 26 -7 33 5 8 10 6 15 -8 7 -17
8 -16 8 5 1 13 4 22 7 18 3 -3 3 -20 -1 -37z m-255 -45 c0 -16 -6 -25 -15 -25
-18 0 -18 5 -5 31 14 26 20 24 20 -6z m301 -45 c5 0 9 -9 9 -20 0 -11 -5 -20
-12 -20 -6 0 -9 3 -5 6 3 3 -3 22 -13 42 -11 19 -16 40 -12 46 3 6 10 -4 16
-22 5 -17 13 -32 17 -32z m3086 -32 c-3 -8 -6 -5 -6 6 -1 11 2 17 5 13 3 -3 4
-12 1 -19z m-2010 -40 c-3 -8 -6 -5 -6 6 -1 11 2 17 5 13 3 -3 4 -12 1 -19z
m-1357 5 c-1 -11 -26 -43 -34 -43 -11 0 -6 38 7 43 19 8 27 8 27 0z m1335 -13
c3 -5 -1 -10 -10 -10 -9 0 -13 5 -10 10 3 6 8 10 10 10 2 0 7 -4 10 -10z
m-3100 -20 c3 -5 1 -10 -4 -10 -6 0 -11 5 -11 10 0 6 2 10 4 10 3 0 8 -4 11
-10z m105 -35 c27 -15 20 -19 -17 -9 -13 4 -23 10 -23 15 0 12 11 11 40 -6z
m100 -15 c12 0 12 -2 2 -9 -17 -10 -62 -2 -62 11 0 6 10 8 23 4 12 -3 29 -6
37 -6z m85 -10 c27 -7 25 -8 -17 -9 -27 0 -48 4 -48 9 0 11 21 11 65 0z m2233
-7 c-16 -2 -40 -2 -55 0 -16 2 -3 4 27 4 30 0 43 -2 28 -4z m-980 -10 c-10 -2
-26 -2 -35 0 -10 3 -2 5 17 5 19 0 27 -2 18 -5z m4487 -83 c3 -5 1 -10 -4 -10
-6 0 -11 5 -11 10 0 6 2 10 4 10 3 0 8 -4 11 -10z m220 -114 l20 -16 -20 7
c-11 4 -29 16 -40 26 l-20 19 20 -10 c11 -6 29 -18 40 -26z m-285 -196 c0 -5
-4 -10 -10 -10 -5 0 -10 5 -10 10 0 6 5 10 10 10 6 0 10 -4 10 -10z m177 -116
c-3 -3 -12 -4 -19 -1 -8 3 -5 6 6 6 11 1 17 -2 13 -5z m-4544 -119 c1 -13 -30
-19 -51 -9 -14 6 -13 8 8 14 30 9 41 8 43 -5z m2 -65 c-3 -5 -17 -10 -31 -10
-13 0 -24 5 -24 10 0 6 14 10 31 10 17 0 28 -4 24 -10z m-5 -53 c0 -5 19 -8
43 -7 88 5 167 0 167 -11 0 -7 -18 -8 -52 -4 -36 4 -71 1 -108 -10 -30 -9 -61
-17 -69 -18 -18 -3 -36 26 -28 46 6 16 47 20 47 4z m3230 -37 c0 -5 -4 -10
-10 -10 -5 0 -10 5 -10 10 0 6 5 10 10 10 6 0 10 -4 10 -10z m-5003 -42 c-3
-8 -6 -5 -6 6 -1 11 2 17 5 13 3 -3 4 -12 1 -19z m5238 -218 c3 -5 -1 -10 -9
-10 -8 0 -18 5 -21 10 -3 6 1 10 9 10 8 0 18 -4 21 -10z m-145 -26 c0 -8 -4
-12 -10 -9 -5 3 -10 10 -10 16 0 5 5 9 10 9 6 0 10 -7 10 -16z m170 -15 c0 -5
-7 -9 -15 -9 -15 0 -20 12 -9 23 8 8 24 -1 24 -14z m150 -219 c0 -5 -4 -10 -9
-10 -6 0 -13 5 -16 10 -3 6 1 10 9 10 9 0 16 -4 16 -10z m882 -317 c17 -15 19
-15 36 0 21 19 52 23 52 7 0 -20 -49 -60 -73 -60 -25 0 -49 22 -60 53 -8 22
20 23 45 0z m-3929 -64 c44 -12 63 -38 71 -99 6 -51 0 -67 -29 -65 -67 5 -64
2 -67 53 -2 34 -7 47 -18 47 -13 0 -15 -21 -15 -125 0 -104 2 -125 15 -125 10
0 16 13 18 43 l3 42 51 0 50 0 -7 -47 c-9 -65 -27 -90 -75 -104 -30 -9 -49 -9
-78 -1 -68 20 -75 37 -80 172 -6 154 10 194 83 213 32 8 38 7 78 -4z m560 -27
c27 -26 27 -26 27 -162 0 -153 -6 -171 -66 -190 -46 -15 -95 -6 -128 25 -26
24 -26 26 -26 162 0 117 3 142 18 161 36 47 127 49 175 4z m1054 12 c34 -21
45 -77 41 -201 -3 -101 -5 -114 -27 -137 -49 -52 -153 -39 -186 24 -25 48 -18
269 9 299 37 40 112 47 163 15z m351 -1 c28 -17 42 -52 42 -103 0 -41 -7 -47
-60 -46 l-35 1 -3 53 c-3 44 -6 53 -20 50 -14 -3 -17 -19 -20 -108 -3 -118 2
-150 23 -150 11 0 15 12 15 45 l0 45 51 0 52 0 -7 -47 c-8 -61 -27 -89 -71
-103 -47 -15 -101 -5 -131 25 -23 23 -24 30 -24 162 0 115 3 142 18 160 33 41
118 50 170 16z m444 17 c68 -19 78 -44 78 -191 0 -122 -1 -129 -25 -157 -46
-55 -154 -49 -186 9 -7 13 -14 75 -16 139 -5 137 8 177 67 197 44 15 38 15 82
3z m1319 -2 c63 -22 68 -37 69 -191 0 -132 -1 -139 -24 -162 -49 -49 -152 -40
-181 15 -11 21 -15 63 -15 150 0 135 13 176 60 186 14 3 30 7 35 9 17 6 21 5
56 -7z m-6997 -14 c3 -9 6 -45 6 -80 0 -35 4 -64 9 -64 11 0 21 50 21 105 0
46 9 55 61 55 l29 0 0 -78 c0 -66 -3 -82 -20 -97 l-20 -18 20 -19 c16 -15 20
-32 20 -78 0 -32 3 -66 6 -75 6 -14 0 -16 -42 -13 l-49 3 -5 69 c-7 98 -28
100 -32 4 l-3 -73 -47 -3 -48 -3 0 184 c0 101 3 187 7 190 14 14 81 7 87 -9z
m330 8 c4 -8 56 -339 56 -362 0 -5 -22 -10 -49 -10 -49 0 -50 1 -53 33 -4 42
-31 43 -38 2 -5 -28 -9 -30 -53 -33 -39 -3 -47 0 -47 14 0 25 40 337 45 352 5
14 130 18 139 4z m174 -74 c4 -110 32 -104 32 7 0 61 14 78 61 73 l32 -3 -2
-75 c-1 -64 -5 -78 -24 -94 l-22 -18 23 -15 c19 -13 22 -24 22 -79 0 -34 5
-66 10 -69 6 -3 10 0 10 7 0 28 41 332 46 340 9 14 134 10 139 -4 5 -14 55
-341 55 -359 0 -6 -20 -9 -47 -7 -44 3 -48 5 -53 33 -3 18 -11 30 -20 30 -9 0
-17 -13 -20 -30 l-5 -30 -97 -2 c-111 -3 -105 -8 -110 91 -5 81 -27 69 -30
-16 l-3 -73 -47 -3 -48 -3 0 191 0 191 48 -3 47 -3 3 -77z m620 -110 l2 -188
-50 0 -50 0 0 80 c0 64 -3 80 -15 80 -12 0 -15 -16 -15 -80 l0 -80 -45 0 -45
0 0 79 c0 60 4 84 16 96 15 15 15 17 0 34 -23 26 -21 102 4 134 24 30 43 35
130 33 l65 -1 3 -187z m274 182 c48 -14 58 -33 58 -112 0 -78 -13 -98 -68
-105 l-42 -6 0 -74 0 -74 -47 3 -48 3 -3 175 c-1 96 0 180 2 187 7 16 95 17
148 3z m289 -175 c14 -99 24 -183 22 -187 -2 -5 -24 -8 -48 -8 -42 0 -44 1
-47 33 -4 42 -31 43 -38 2 -5 -27 -9 -30 -49 -33 -24 -2 -47 0 -51 5 -6 7 33
331 45 361 3 9 23 12 72 10 l68 -3 26 -180z m227 165 c30 -28 39 -87 19 -121
-13 -24 -13 -30 -1 -40 10 -8 14 -33 14 -81 0 -59 -3 -72 -24 -93 -32 -32 -87
-41 -134 -23 -44 17 -63 49 -60 103 3 39 4 40 45 43 l42 3 3 -48 c2 -35 7 -48
18 -48 11 0 16 14 18 53 3 51 2 54 -27 65 -36 13 -45 57 -12 57 26 0 43 24 39
56 -4 39 -27 42 -34 5 -6 -29 -9 -31 -50 -31 -43 0 -44 1 -44 34 0 19 9 45 21
60 18 23 27 26 83 26 48 0 67 -4 84 -20z m172 -48 c3 -34 10 -62 15 -62 6 0
12 28 15 62 l5 63 45 0 45 0 0 -185 0 -185 -47 -3 -48 -3 0 80 c0 65 -3 81
-15 81 -12 0 -15 -16 -15 -80 l0 -80 -50 0 -50 0 0 183 c0 101 3 187 7 191 4
4 25 6 48 4 l40 -3 5 -63z m250 -7 l5 -70 25 70 25 70 40 0 40 0 0 -185 0
-185 -40 0 -40 0 -5 65 -5 65 -21 -65 -22 -65 -41 -3 -41 -3 -2 68 c-5 209 -5
280 -1 296 4 14 13 17 41 15 l37 -3 5 -70z m272 -72 c2 -104 7 -148 15 -150 9
-3 13 32 15 144 l3 148 45 0 45 0 3 -144 c2 -104 6 -149 17 -164 14 -20 14
-20 20 4 3 13 13 87 23 164 l17 140 64 3 c35 2 68 -1 72 -5 8 -8 38 -184 56
-326 l6 -48 -49 3 c-46 3 -49 5 -54 33 -7 41 -34 40 -38 -2 -3 -33 -4 -33 -57
-33 -53 0 -54 0 -57 -32 -3 -29 -6 -33 -33 -33 -26 0 -30 4 -33 32 l-3 32 -87
3 c-48 2 -86 6 -84 11 1 4 2 88 2 187 l0 180 45 0 44 0 3 -147z m868 67 c3
-41 10 -75 15 -75 6 0 13 31 16 68 3 37 10 72 16 78 6 6 26 9 44 7 l34 -3 0
-79 c0 -70 -2 -80 -22 -93 l-23 -15 22 -18 c19 -15 23 -30 26 -94 l4 -76 -41
0 c-50 0 -61 17 -61 94 0 43 -3 56 -15 56 -12 0 -15 -15 -15 -76 l0 -75 -47 3
-48 3 -3 175 c-1 96 0 180 3 188 3 9 19 12 47 10 l43 -3 5 -75z m658 -113 l2
-188 -47 3 -48 3 -3 145 c-2 80 -5 147 -7 149 -2 1 -8 0 -14 -4 -7 -4 -11 -55
-11 -135 0 -126 -1 -130 -24 -145 -33 -22 -100 -17 -104 8 -2 10 5 28 15 39
16 17 18 39 19 162 0 77 1 145 2 149 1 4 50 6 110 5 l107 -3 3 -188z m140 126
c3 -62 3 -63 32 -63 35 0 82 -17 92 -33 4 -7 8 -49 8 -94 0 -115 -8 -123 -135
-123 l-95 0 0 183 c0 101 3 187 7 191 4 4 25 6 48 4 l40 -3 3 -62z m264 -8 c2
-41 8 -76 13 -78 6 -1 13 28 17 65 3 37 9 72 13 78 3 5 24 10 46 10 l39 0 0
-75 c0 -62 -3 -78 -20 -95 l-21 -21 21 -26 c16 -20 20 -40 20 -94 l0 -69 -39
0 c-48 0 -54 9 -57 80 -2 72 -2 70 -19 70 -12 0 -15 -15 -15 -76 l0 -75 -47 3
-48 3 -3 165 c-4 211 -4 210 53 210 l44 0 3 -75z m971 62 c3 -7 3 -25 0 -40
-4 -20 -11 -27 -29 -27 -23 0 -23 0 -26 -147 l-3 -148 -47 -3 -47 -3 -3 148
-3 148 -27 3 c-24 3 -28 8 -28 36 0 18 3 36 7 39 3 4 50 7 104 7 71 0 98 -4
102 -13z m367 -62 c6 -74 9 -73 38 15 19 54 20 55 58 55 l39 0 3 -187 2 -188
-40 0 -40 0 0 65 c0 36 -4 65 -8 65 -5 0 -17 -28 -28 -62 l-19 -63 -42 -3 -43
-3 0 184 c0 101 3 187 7 191 4 4 21 6 38 4 30 -3 30 -4 35 -73z m375 35 c0
-31 -3 -35 -27 -38 l-28 -3 0 -150 0 -149 -50 0 -50 0 0 150 0 150 -30 0 c-27
0 -30 3 -30 33 0 19 3 37 7 41 4 4 52 5 107 4 l101 -3 0 -35z m300 0 c0 -28
-4 -35 -25 -40 l-25 -6 -3 -147 -3 -148 -47 3 -47 3 -3 148 -3 147 -24 0 c-30
0 -36 10 -29 49 l7 32 101 -3 101 -3 0 -35z m228 12 c27 -27 29 -102 4 -129
-16 -19 -16 -21 3 -38 16 -15 20 -31 20 -86 0 -92 -13 -101 -136 -97 l-89 3
-3 175 c-1 96 0 181 3 189 9 23 171 9 198 -17z m407 -47 c6 -74 9 -73 38 15
19 54 20 55 58 55 l39 0 3 -187 2 -188 -40 0 -40 0 0 65 c0 36 -4 65 -8 65 -4
0 -17 -28 -27 -62 l-20 -63 -42 -3 -43 -3 0 191 0 191 38 -3 37 -3 5 -70z
m-6112 -403 c5 -30 6 -55 1 -58 -5 -3 -11 1 -14 8 -10 27 -22 108 -17 113 11
10 21 -10 30 -63z m2034 -120 c16 -16 23 -37 26 -82 l4 -61 -48 3 -49 3 -5 48
c-3 26 -9 47 -15 47 -15 0 -13 -252 2 -257 8 -3 13 12 15 44 l3 48 48 3 47 3
0 -40 c0 -88 -44 -127 -132 -119 -82 8 -92 26 -96 164 -5 152 1 180 41 205 43
27 128 22 159 -9z m2427 4 c30 -27 38 -83 17 -119 -15 -27 -15 -31 -1 -47 20
-22 20 -121 0 -159 -22 -44 -111 -56 -165 -24 -31 18 -40 38 -40 94 0 32 4 37
26 42 44 8 64 -2 64 -33 0 -39 9 -60 27 -60 11 0 13 13 11 58 -3 54 -4 57 -31
60 -24 3 -28 7 -25 30 2 19 10 28 25 30 14 2 25 12 29 27 14 56 -17 87 -32 33
-9 -30 -13 -33 -49 -33 l-40 0 1 44 c1 64 30 84 106 79 37 -3 64 -11 77 -22z
m839 -29 c-2 -16 -11 -23 -30 -25 l-27 -3 -3 -152 -3 -152 -45 0 -45 0 -5 150
-5 150 -27 3 c-24 3 -28 8 -28 37 l0 34 103 3 c109 3 121 -2 115 -45z m-5750
-34 c2 -40 7 -73 12 -73 5 0 11 26 15 58 3 31 7 64 8 72 2 10 16 16 45 18 l42
3 0 -72 c0 -60 -4 -77 -21 -95 l-21 -22 21 -21 c17 -17 21 -33 21 -81 0 -76
16 -78 26 -2 4 31 14 109 23 172 l16 115 64 3 c35 2 68 -1 72 -5 10 -10 61
-352 54 -363 -3 -4 -24 -7 -47 -6 -41 1 -43 3 -46 34 -2 23 -8 32 -22 32 -14
0 -20 -9 -22 -32 l-3 -33 -85 -1 c-115 -1 -118 2 -122 83 -2 42 -8 68 -15 71
-10 3 -13 -16 -13 -71 l0 -75 -40 -7 c-21 -4 -44 -4 -50 0 -6 4 -10 74 -10
191 l0 185 48 -3 47 -3 3 -72z m587 52 c22 -21 25 -33 25 -90 0 -78 -19 -105
-75 -105 l-35 0 0 -75 c0 -70 -1 -75 -24 -81 -13 -3 -35 -4 -47 -2 l-24 3 -3
188 -2 187 80 0 c73 0 83 -3 105 -25z m315 -119 c0 -86 4 -147 10 -151 6 -3
10 -38 10 -76 l0 -70 -32 3 c-28 2 -34 8 -36 31 -3 27 -4 27 -77 27 -73 0 -74
0 -77 -27 -2 -23 -8 -29 -35 -31 l-33 -3 0 67 c0 45 5 73 14 83 18 19 35 122
37 212 1 35 3 67 6 72 2 4 51 7 109 7 l104 0 0 -144z m131 127 c0 -10 0 -39
-1 -65 -2 -67 16 -60 38 15 l18 62 42 3 42 3 0 -186 c0 -201 -1 -204 -55 -191
-24 6 -25 10 -25 73 0 75 -11 74 -29 -2 -15 -60 -26 -75 -56 -75 -56 0 -55 -2
-55 189 0 98 3 181 7 184 3 4 21 7 40 7 24 0 33 -5 34 -17z m349 -18 c0 -33
-2 -35 -35 -35 l-35 0 0 -150 0 -149 -35 -7 c-66 -12 -65 -15 -65 191 l0 185
85 0 85 0 0 -35z m203 13 c15 -66 49 -327 45 -339 -4 -9 -20 -14 -44 -14 -35
0 -40 3 -49 33 -12 41 -38 39 -45 -3 -4 -27 -10 -30 -44 -33 -21 -2 -43 1 -47
5 -5 5 0 78 11 169 30 227 18 204 99 204 63 0 69 -2 74 -22z m167 -43 c0 -51
3 -65 15 -65 12 0 15 14 15 65 l0 65 50 0 50 0 -2 -187 -3 -188 -45 0 -45 0
-3 78 c-2 58 -6 77 -17 77 -11 0 -15 -19 -17 -77 l-3 -78 -45 0 -45 0 -3 188
-2 187 50 0 50 0 0 -65z m500 31 c0 -32 -3 -35 -32 -38 -29 -3 -33 -7 -36 -35
-3 -28 0 -32 25 -35 24 -3 28 -8 31 -40 3 -36 2 -38 -28 -38 -30 0 -31 -2 -28
-37 3 -35 6 -38 36 -41 30 -3 32 -6 32 -42 l0 -38 -67 -1 c-111 -1 -103 -17
-103 195 l0 184 85 0 85 0 0 -34z m540 -151 c0 -102 -3 -185 -7 -186 -37 -5
-70 -6 -80 -2 -10 4 -13 44 -13 155 0 115 -3 149 -12 146 -9 -3 -14 -42 -16
-135 -3 -159 -11 -170 -114 -164 -23 1 -26 61 -3 61 13 0 15 24 15 155 l0 155
115 0 115 0 0 -185z m120 120 c0 -36 3 -65 8 -65 4 0 16 28 28 63 20 62 20 62
62 65 l42 3 0 -184 c0 -200 1 -197 -56 -197 -23 0 -24 3 -24 70 0 39 -4 70 -9
70 -4 0 -16 -29 -26 -65 -18 -68 -34 -82 -81 -71 l-24 6 0 185 0 185 40 0 40
0 0 -65z m460 30 c0 -31 -3 -35 -25 -35 -32 0 -35 -13 -38 -175 l-2 -130 -42
-3 -43 -3 -1 113 c-1 62 0 121 1 132 4 40 -10 66 -35 66 -22 0 -25 4 -25 35
l0 35 105 0 105 0 0 -35z m190 1 c0 -32 -3 -35 -32 -38 -29 -3 -33 -7 -36 -35
-3 -29 0 -33 22 -33 31 0 47 -27 35 -58 -6 -17 -15 -22 -31 -20 -20 3 -23 -2
-26 -39 l-3 -43 36 0 c36 0 36 -1 33 -37 l-3 -37 -74 -4 c-54 -3 -76 0 -82 10
-10 15 -12 352 -2 361 3 4 42 7 85 7 l78 0 0 -34z m225 4 c0 -22 -5 -26 -45
-30 -42 -5 -45 -7 -45 -35 0 -29 2 -30 46 -33 69 -4 81 -23 80 -122 -1 -45 -6
-90 -11 -100 -10 -19 -80 -30 -170 -27 l-45 2 -3 188 -2 188 97 -3 c97 -3 98
-3 98 -28z m295 -155 c0 -206 1 -203 -65 -191 l-35 7 0 80 c0 60 -3 80 -12 77
-9 -3 -14 -31 -16 -81 -3 -82 -1 -79 -59 -81 l-28 -1 -3 79 c-2 64 0 82 15 98
17 19 17 20 0 33 -12 9 -17 26 -17 64 0 42 5 57 25 76 22 23 32 25 110 25 l85
0 0 -185z m345 -5 l0 -185 -35 -1 c-60 -2 -59 -4 -62 154 -2 104 -7 147 -15
149 -9 3 -13 -33 -15 -149 l-3 -153 -45 0 -45 0 -3 188 -2 188 112 -3 113 -3
0 -185z m125 120 l5 -65 23 68 24 68 41 -3 42 -3 1 -178 c1 -192 -1 -201 -53
-194 -27 3 -28 6 -33 73 l-5 69 -18 -60 c-24 -76 -32 -86 -73 -83 -32 2 -34 5
-35 38 0 32 0 331 1 338 0 2 17 2 38 0 l37 -3 5 -65z m690 -74 c0 -86 4 -147
10 -151 6 -3 10 -37 10 -76 l0 -69 -34 0 c-32 0 -35 3 -38 33 -2 17 -6 31 -10
30 -5 -2 -39 -3 -78 -3 l-70 0 0 -30 c0 -27 -3 -30 -30 -30 l-30 0 0 65 c0 39
6 75 14 88 18 28 36 136 36 214 0 33 3 63 7 66 3 4 53 7 110 7 l103 0 0 -144z
m270 -41 l0 -184 -35 -7 c-60 -11 -65 -4 -65 87 0 60 -3 80 -12 77 -8 -3 -15
-33 -18 -84 l-5 -79 -30 -1 c-53 -1 -55 3 -55 84 0 55 4 80 16 93 15 17 15 19
-1 35 -13 14 -16 30 -13 72 7 79 26 92 134 92 l84 0 0 -185z m525 179 c40 -16
58 -101 29 -142 -15 -21 -15 -25 0 -41 12 -13 16 -38 16 -89 0 -62 -3 -73 -21
-82 -25 -14 -170 -24 -186 -13 -10 7 -19 230 -14 351 1 21 5 22 80 22 44 0 87
-3 96 -6z m-4065 -334 c0 -38 -26 -80 -49 -80 -4 0 -9 27 -10 60 l-1 60 30 0
c28 0 30 -2 30 -40z m-1640 -80 c0 -5 -2 -10 -4 -10 -3 0 -8 5 -11 10 -3 6 -1
10 4 10 6 0 11 -4 11 -10z m4 -36 c7 -19 8 -79 1 -72 -3 3 -8 15 -10 27 -3 11
-7 30 -9 41 -6 24 9 27 18 4z m1631 -132 c27 -20 35 -41 35 -99 l0 -43 -50 0
-50 0 0 51 c0 36 -4 49 -12 47 -10 -4 -13 -38 -13 -128 0 -90 3 -124 13 -127
8 -3 12 7 12 34 0 21 4 43 8 49 6 9 49 12 85 5 4 0 7 -21 7 -46 0 -35 -6 -52
-29 -77 -26 -29 -34 -32 -85 -32 -48 0 -60 4 -84 27 -26 27 -27 31 -30 158 -3
108 -1 134 13 155 35 53 126 66 180 26z m1218 -13 l29 -31 -4 -134 c-3 -129
-4 -134 -30 -160 -22 -22 -36 -27 -82 -28 -48 0 -60 3 -84 27 -27 27 -27 28
-27 166 0 151 4 162 60 188 46 20 105 9 138 -28z m1387 19 c36 -23 42 -49 42
-181 0 -148 -10 -175 -76 -190 -49 -12 -118 13 -135 49 -17 39 -15 258 4 294
24 46 112 61 165 28z m504 8 c46 -19 66 -51 66 -108 l0 -48 -50 0 -50 0 0 50
c0 38 -4 50 -15 50 -13 0 -15 -21 -15 -130 0 -109 2 -130 15 -130 11 0 15 12
15 45 0 46 1 47 50 47 49 0 50 -1 50 -46 0 -75 -64 -126 -142 -111 -76 14 -88
43 -88 199 0 119 1 126 25 155 23 26 39 33 93 40 7 0 28 -5 46 -13z m-5094
-36 c0 -38 -2 -40 -30 -40 l-30 0 0 -150 0 -150 -51 0 -50 0 1 118 c2 193 3
182 -24 182 -28 0 -34 11 -28 52 l4 28 104 0 104 0 0 -40z m195 18 c3 -13 14
-86 25 -163 11 -77 23 -152 26 -168 6 -27 5 -27 -45 -27 -49 0 -50 1 -53 33
-2 20 -8 32 -18 32 -8 0 -18 -15 -24 -32 -8 -31 -11 -33 -57 -33 -47 0 -48 1
-44 28 6 35 45 332 45 344 0 4 31 8 70 8 64 0 70 -2 75 -22z m199 5 c3 -10 8
-39 12 -65 3 -27 9 -48 13 -48 4 0 12 28 17 63 l9 62 63 3 62 3 0 -191 0 -190
-45 0 -45 0 6 79 c7 88 -9 123 -20 43 -17 -127 -16 -122 -46 -122 -31 0 -34 7
-45 105 -12 101 -24 98 -25 -7 l0 -98 -42 0 -43 0 3 190 3 190 59 0 c47 0 60
-3 64 -17z m411 -18 c0 -29 -2 -30 -47 -33 -45 -3 -48 -5 -48 -31 0 -27 3 -29
53 -34 32 -4 57 -13 65 -24 7 -10 12 -49 12 -100 0 -115 -8 -123 -135 -123
l-95 0 0 183 c0 101 3 187 7 191 4 4 48 5 98 4 l90 -3 0 -30z m130 26 c3 -5
10 -46 17 -91 13 -93 26 -94 29 0 3 94 6 100 45 100 18 0 35 -4 38 -8 2 -4 -4
-82 -14 -172 -22 -193 -26 -200 -116 -200 -51 0 -54 1 -54 25 0 16 6 25 15 25
20 0 19 4 -10 161 -32 174 -33 169 9 169 19 0 37 -4 41 -9z m314 -2 c42 -15
51 -35 51 -112 0 -74 -15 -94 -74 -104 l-36 -6 0 -73 0 -74 -50 0 -50 0 0 183
c0 101 3 187 7 190 10 11 117 8 152 -4z m246 -29 c0 -32 -3 -35 -33 -38 -31
-3 -33 -6 -30 -35 2 -27 8 -33 31 -35 24 -3 27 -8 27 -38 0 -31 -2 -34 -31
-34 -29 0 -30 -1 -27 -42 2 -25 8 -44 16 -44 6 -1 21 -2 32 -3 16 -1 20 -8 20
-36 l0 -35 -85 0 -85 0 0 183 c0 101 3 187 7 191 4 4 41 5 83 4 l75 -3 0 -35z
m754 -97 c12 -76 24 -162 28 -190 l6 -53 -51 0 c-50 0 -51 1 -54 33 -2 20 -8
32 -18 32 -10 0 -16 -12 -18 -32 -3 -32 -4 -33 -53 -33 -35 0 -49 4 -49 14 0
20 39 317 45 344 5 20 11 22 74 22 l68 0 22 -137z m241 112 c17 -15 20 -30 20
-89 0 -40 -6 -78 -13 -87 -7 -9 -31 -20 -55 -24 l-42 -7 0 -74 0 -74 -50 0
-50 0 0 183 c0 101 3 187 8 191 4 5 42 6 84 4 57 -3 83 -10 98 -23z m225 3
c12 -57 51 -348 47 -353 -3 -3 -24 -5 -48 -5 -40 0 -42 1 -48 36 -8 42 -27 40
-40 -4 -8 -30 -11 -32 -59 -32 l-49 0 5 32 c3 18 13 94 22 168 23 185 20 180
100 180 59 0 65 -2 70 -22z m268 -5 c7 -38 -1 -53 -29 -53 l-24 0 0 -150 0
-150 -50 0 -49 0 -3 147 -3 147 -25 6 c-16 4 -26 14 -28 29 -7 47 1 51 107 51
l99 0 5 -27z m454 17 c17 -6 35 -22 42 -36 16 -37 14 -103 -4 -110 -20 -8 -19
-20 5 -44 34 -34 25 -147 -14 -172 -6 -4 -53 -8 -103 -8 l-93 0 0 190 0 190
69 0 c37 0 82 -5 98 -10z m333 -95 c4 -80 8 -100 20 -100 12 0 16 20 20 100
l5 100 45 0 45 0 3 -187 2 -188 -50 0 -50 0 0 65 0 64 -47 -5 c-78 -9 -87 4
-91 126 -2 55 -1 108 2 116 4 11 17 14 48 12 l43 -3 5 -100z m340 65 c0 -38
-2 -40 -30 -40 -28 0 -30 -3 -30 -35 0 -32 2 -35 30 -35 28 0 30 -3 30 -35 0
-32 -2 -35 -31 -35 -29 0 -30 -1 -27 -42 3 -40 5 -43 33 -43 27 0 30 -3 33
-37 l3 -38 -85 0 -86 0 0 183 c0 101 3 187 7 190 3 4 39 7 80 7 l73 0 0 -40z
m225 5 c0 -28 -3 -30 -45 -35 -40 -4 -45 -8 -45 -30 0 -22 5 -26 49 -32 73
-10 81 -23 81 -128 0 -115 -5 -119 -131 -120 -79 0 -92 2 -96 18 -3 14 -2 254
1 340 1 22 3 23 94 20 l92 -3 0 -30z m437 -40 c2 -41 7 -75 13 -75 6 0 12 29
15 64 3 36 10 70 16 76 6 6 27 10 45 8 l34 -3 -1 -73 c-1 -54 -6 -78 -19 -92
-17 -19 -17 -21 -2 -38 11 -12 19 -45 23 -95 l6 -77 -45 0 c-53 0 -57 7 -57
91 0 46 -3 59 -15 59 -12 0 -15 -15 -15 -75 l0 -75 -50 0 -50 0 0 183 c0 101
3 187 7 190 3 4 26 7 49 7 l43 0 3 -75z m593 63 c5 -13 55 -341 55 -358 0 -6
-22 -10 -49 -10 -49 0 -50 1 -53 33 -2 20 -8 32 -18 32 -10 0 -16 -12 -18 -32
-3 -32 -4 -33 -53 -33 -43 0 -49 2 -49 21 0 27 39 330 45 347 3 8 26 12 70 12
43 0 67 -4 70 -12z m266 -17 c15 -18 19 -39 19 -91 0 -80 -11 -97 -71 -106
l-39 -7 0 -73 0 -74 -50 0 -50 0 0 191 0 191 86 -3 c76 -4 88 -7 105 -28z
m147 -37 l3 -61 47 -6 c66 -7 82 -31 82 -118 0 -78 -13 -115 -44 -123 -11 -3
-58 -6 -103 -6 l-83 0 0 191 0 190 48 -3 47 -3 3 -61z m260 -126 l2 -188 -50
0 -50 0 0 183 c0 101 3 187 7 191 4 4 25 6 48 4 l40 -3 3 -187z m-4364 50
c-10 -67 -11 -101 -1 -161 l8 -48 -27 3 c-24 2 -30 9 -37 43 -9 44 -5 184 7
203 4 7 19 12 33 12 24 0 25 -1 17 -52z m83 -60 c-1 -62 1 -120 4 -128 3 -10
-5 -16 -23 -18 -18 -2 -28 1 -29 10 0 7 -4 36 -8 63 -5 29 -4 78 1 118 9 60
13 67 33 67 22 0 22 -2 22 -112z m4375 47 c7 -56 3 -137 -8 -177 -3 -10 -15
-18 -27 -18 -22 0 -23 3 -23 130 l0 131 26 -3 c23 -3 26 -9 32 -63z m84 18 c4
-27 8 -64 8 -83 0 -19 -4 -56 -8 -82 -7 -45 -9 -48 -38 -48 -22 0 -29 4 -25
14 13 32 17 134 9 183 -10 59 -8 63 24 63 19 0 24 -7 30 -47z m-6226 -23 l-8
-35 1 43 c0 23 4 39 8 35 4 -4 4 -24 -1 -43z m3655 -41 c4 -5 4 -21 1 -35 -6
-23 -10 -25 -64 -22 -58 3 -73 16 -58 54 6 17 111 20 121 3z"/>
<path d="M2581 5074 c0 -11 3 -14 6 -6 3 7 2 16 -1 19 -3 4 -6 -2 -5 -13z"/>
<path d="M5437 5453 c-9 -8 -9 -216 -1 -237 16 -42 24 -5 24 114 0 119 -4 142
-23 123z"/>
<path d="M1785 5448 c-9 -23 -2 -83 10 -83 14 0 19 75 6 88 -7 7 -12 5 -16 -5z"/>
<path d="M2020 5340 c0 -22 0 -43 -1 -47 0 -4 4 -9 10 -11 7 -2 11 15 11 47 0
28 -4 51 -10 51 -5 0 -10 -18 -10 -40z"/>
<path d="M2490 5270 c0 -47 3 -60 15 -60 12 0 15 13 15 60 0 47 -3 60 -15 60
-12 0 -15 -13 -15 -60z"/>
<path d="M3296 5439 c-2 -8 -7 -60 -11 -117 -6 -96 -5 -103 12 -100 16 3 18
16 21 107 2 61 -1 108 -7 114 -7 7 -12 6 -15 -4z"/>
<path d="M4040 5269 c0 -81 24 -77 28 4 2 46 0 57 -13 57 -12 0 -15 -13 -15
-61z"/>
<path d="M5107 5377 c-13 -35 -8 -97 8 -97 16 0 18 14 7 75 -6 30 -9 36 -15
22z"/>
<path d="M5739 5445 c0 -6 -2 -23 -4 -38 -2 -15 -5 -62 -7 -105 -2 -63 0 -77
12 -77 12 0 16 20 18 104 2 63 -1 108 -8 115 -6 6 -10 6 -11 1z"/>
<path d="M6609 5448 c-8 -21 -25 -215 -20 -221 4 -4 15 -5 24 -1 14 5 17 22
17 109 0 59 -4 107 -10 110 -5 3 -11 5 -11 3z"/>
<path d="M7070 5410 c0 -5 5 -10 10 -10 6 0 10 5 10 10 0 6 -4 10 -10 10 -5 0
-10 -4 -10 -10z"/>
<path d="M7041 5394 c0 -11 3 -14 6 -6 3 7 2 16 -1 19 -3 4 -6 -2 -5 -13z"/>
<path d="M3355 4972 c-11 -2 -23 -9 -27 -16 -11 -16 -9 -378 2 -396 14 -22
492 -26 514 -5 13 13 11 28 -13 120 l-28 106 20 86 c19 79 19 87 4 98 -12 8
-65 11 -184 9 -93 -2 -175 -4 -183 -5 -8 -1 -31 1 -50 3 -19 3 -44 3 -55 0z
m75 -92 c0 -38 4 -70 8 -70 5 0 17 30 28 68 l21 67 39 0 39 0 3 -187 2 -188
-40 0 -40 0 -1 78 c0 84 -6 80 -34 -21 l-16 -58 -42 3 -42 3 -3 175 c-1 96 0
180 2 187 3 7 21 13 41 13 l35 0 0 -70z m266 25 c10 -33 13 -37 19 -20 21 60
25 65 54 65 16 0 32 -3 35 -8 2 -4 -3 -42 -12 -85 -16 -76 -16 -78 10 -177 14
-55 23 -102 20 -105 -3 -3 -22 -5 -43 -5 -40 0 -42 3 -55 72 -7 42 -24 42 -24
0 0 -61 -9 -72 -56 -72 -52 0 -51 -3 -28 123 15 81 15 93 0 152 -25 101 -24
107 26 103 40 -3 43 -5 54 -43z"/>
<path d="M3303 4439 c-5 -5 -8 -21 -5 -34 5 -30 37 -29 71 2 l25 22 -28 11
c-35 13 -49 13 -63 -1z"/>
<path d="M3675 4379 c-33 -4 -109 -7 -168 -7 -59 1 -111 -3 -116 -8 -23 -25
-30 -76 -16 -117 7 -23 16 -71 18 -107 3 -36 9 -64 13 -64 5 1 50 5 99 8 267
19 338 25 343 31 4 3 12 54 19 113 16 144 10 156 -72 158 -33 1 -87 -2 -120
-7z"/>
<path d="M4289 4331 c-2 -6 -2 -111 1 -233 4 -156 8 -223 17 -225 9 -3 10 52
6 224 -5 200 -12 271 -24 234z"/>
<path d="M3225 4153 c7 -131 13 -267 14 -305 1 -10 8 -18 17 -18 14 0 16 8 11
53 -4 28 -9 132 -13 230 -6 146 -10 177 -22 177 -13 0 -14 -19 -7 -137z"/>
<path d="M4360 4185 c0 -15 4 -24 10 -20 6 3 10 12 10 20 0 8 -4 17 -10 20 -6
4 -10 -5 -10 -20z"/>
<path d="M4392 4185 c0 -16 2 -22 5 -12 2 9 2 23 0 30 -3 6 -5 -1 -5 -18z"/>
<path d="M4403 4025 c-3 -9 -3 -18 0 -22 10 -10 37 6 37 22 0 20 -29 20 -37 0z"/>
<path d="M4377 4008 c-7 -25 -1 -38 16 -37 8 0 8 2 1 5 -6 3 -9 16 -6 29 5 31
-4 33 -11 3z"/>
<path d="M4296 3793 c-3 -3 -6 -31 -6 -62 -1 -91 -50 -173 -130 -215 -37 -20
-159 -34 -402 -47 -239 -13 -298 -10 -355 20 -77 39 -115 100 -128 204 -10 82
-29 74 -22 -10 8 -85 44 -146 112 -191 81 -53 103 -55 355 -42 301 15 403 26
449 49 41 21 101 83 125 129 30 57 32 194 2 165z"/>
<path d="M4370 3751 c0 -6 4 -13 10 -16 6 -3 7 1 4 9 -7 18 -14 21 -14 7z"/>
<path d="M3728 3403 c6 -2 18 -2 25 0 6 3 1 5 -13 5 -14 0 -19 -2 -12 -5z"/>
<path d="M4884 4877 c-2 -7 -3 -64 -2 -127 2 -80 7 -115 16 -118 9 -3 12 27
12 127 0 83 -4 131 -10 131 -6 0 -13 -6 -16 -13z"/>
<path d="M1979 4850 c-1 -16 -2 -35 -3 -42 -2 -20 22 -20 29 1 7 23 -3 71 -16
71 -5 0 -10 -13 -10 -30z"/>
<path d="M2217 4803 c-4 -3 -7 -26 -7 -50 0 -30 4 -43 14 -43 10 0 12 11 8 48
-5 53 -6 55 -15 45z"/>
<path d="M2680 4702 c0 -32 3 -62 7 -65 13 -14 33 17 33 53 0 48 -8 70 -26 70
-10 0 -14 -15 -14 -58z"/>
<path d="M4286 4777 c-6 -39 -5 -62 2 -69 19 -19 26 18 15 75 l-9 52 -8 -58z"/>
<path d="M5636 4803 c-4 -38 -9 -87 -13 -110 -5 -39 -3 -43 16 -43 20 0 21 5
21 110 0 122 -14 147 -24 43z"/>
<path d="M2940 4131 c0 -11 5 -23 10 -26 6 -3 10 3 10 14 0 11 -4 23 -10 26
-5 3 -10 -3 -10 -14z"/>
<path d="M2685 4030 c-3 -5 4 -14 15 -20 16 -8 20 -8 20 4 0 16 -27 29 -35 16z"/>
<path d="M6422 3800 c0 -14 2 -19 5 -12 2 6 2 18 0 25 -3 6 -5 1 -5 -13z"/>
<path d="M6423 3700 c0 -25 2 -35 4 -22 2 12 2 32 0 45 -2 12 -4 2 -4 -23z"/>
<path d="M3866 1595 c-11 -29 -7 -233 5 -240 6 -4 13 -4 17 0 12 12 8 248 -4
252 -6 2 -14 -3 -18 -12z"/>
<path d="M4930 1480 c0 -109 2 -130 15 -130 13 0 15 21 15 130 0 109 -2 130
-15 130 -13 0 -15 -21 -15 -130z"/>
<path d="M5767 1603 c-4 -3 -7 -62 -7 -130 0 -103 2 -123 15 -123 13 0 15 21
15 130 0 119 -4 142 -23 123z"/>
<path d="M7074 1585 c-8 -31 1 -223 10 -233 17 -16 24 30 23 136 -1 80 -6 117
-14 119 -7 3 -15 -7 -19 -22z"/>
<path d="M388 1485 c-4 -50 -1 -65 13 -65 12 0 12 97 0 104 -5 3 -11 -14 -13
-39z"/>
<path d="M888 1482 c-5 -51 -2 -65 13 -57 12 8 12 92 0 99 -5 3 -11 -15 -13
-42z"/>
<path d="M1134 1586 c-8 -22 -1 -59 14 -64 8 -2 12 9 12 37 0 40 -15 55 -26
27z"/>
<path d="M1480 1555 c0 -33 4 -45 15 -45 11 0 15 12 15 45 0 33 -4 45 -15 45
-11 0 -15 -12 -15 -45z"/>
<path d="M1717 1485 c-7 -49 -2 -69 14 -60 11 8 12 75 0 93 -5 9 -10 -3 -14
-33z"/>
<path d="M3010 1474 c0 -40 3 -55 13 -51 6 2 12 9 11 15 -1 7 -2 30 -2 52 -3
62 -22 47 -22 -16z"/>
<path d="M4412 1419 c4 -79 23 -81 23 -2 0 37 -4 58 -13 61 -10 3 -12 -11 -10
-59z"/>
<path d="M6812 1563 c3 -41 23 -55 33 -24 9 28 -3 61 -21 61 -11 0 -14 -9 -12
-37z"/>
<path d="M6817 1453 c-4 -3 -7 -26 -7 -50 0 -32 4 -43 15 -43 16 0 17 3 18 35
1 60 -7 77 -26 58z"/>
<path d="M1009 921 c-1 -23 -2 -46 -3 -53 -1 -6 5 -13 12 -15 8 -3 12 10 12
46 0 60 -19 80 -21 22z"/>
<path d="M1267 1023 c-10 -10 -8 -93 2 -93 19 0 28 63 13 88 -5 7 -11 9 -15 5z"/>
<path d="M1531 915 c-12 -110 -10 -128 14 -118 12 4 15 28 15 114 0 60 -4 109
-9 109 -4 0 -14 -47 -20 -105z"/>
<path d="M2267 947 c-13 -35 -8 -97 8 -97 16 0 18 14 7 75 -6 30 -9 36 -15 22z"/>
<path d="M4450 840 c0 -45 4 -60 14 -60 17 0 26 22 26 60 0 38 -9 60 -26 60
-10 0 -14 -15 -14 -60z"/>
<path d="M4716 1023 c-12 -13 -6 -71 9 -77 12 -4 15 3 15 34 0 37 -10 56 -24
43z"/>
<path d="M5876 1003 c-2 -10 -8 -63 -11 -117 -6 -90 -6 -98 10 -92 9 3 19 6
21 6 2 0 4 50 4 110 0 61 -4 110 -9 110 -5 0 -12 -8 -15 -17z"/>
<path d="M6144 1005 c-8 -20 4 -65 16 -65 6 0 10 18 10 40 0 40 -15 54 -26 25z"/>
<path d="M6717 1023 c-4 -3 -7 -21 -7 -38 0 -17 3 -35 7 -38 11 -11 33 14 33
38 0 24 -22 49 -33 38z"/>
<path d="M6717 874 c-4 -4 -7 -27 -7 -51 0 -48 25 -62 36 -19 11 46 -7 91 -29
70z"/>
<path d="M3840 330 c0 -109 2 -130 15 -130 13 0 15 21 15 130 0 109 -2 130
-15 130 -13 0 -15 -21 -15 -130z"/>
<path d="M5250 330 c0 -101 3 -131 13 -127 9 3 12 37 12 127 0 90 -3 124 -12
128 -10 3 -13 -27 -13 -128z"/>
<path d="M857 351 c-11 -52 -8 -71 8 -71 16 0 20 49 6 85 -7 16 -9 14 -14 -14z"/>
<path d="M1454 316 c-9 -22 0 -111 11 -111 6 0 11 28 13 63 2 39 -1 62 -8 62
-6 0 -13 -6 -16 -14z"/>
<path d="M1930 405 c0 -33 4 -45 13 -42 7 2 12 20 12 42 0 22 -5 40 -12 43 -9
2 -13 -10 -13 -43z"/>
<path d="M2896 365 c-11 -30 -7 -87 6 -83 8 3 11 20 9 49 -3 50 -6 56 -15 34z"/>
<path d="M3140 406 c0 -35 4 -46 16 -46 12 0 14 9 12 42 -4 59 -28 63 -28 4z"/>
<path d="M3377 351 c-11 -51 -8 -71 8 -71 16 0 18 23 6 75 l-7 30 -7 -34z"/>
<path d="M4109 446 c-3 -3 -3 -21 -1 -41 5 -45 27 -41 27 5 0 30 -13 48 -26
36z"/>
<path d="M4110 260 c0 -37 4 -50 13 -47 7 2 12 21 12 47 0 26 -5 45 -12 48 -9
2 -13 -11 -13 -48z"/>
<path d="M4987 324 c-10 -11 -9 -112 2 -118 18 -11 32 24 29 70 -3 44 -15 63
-31 48z"/>
<path d="M6029 340 c-1 -16 -2 -35 -3 -42 -1 -6 5 -13 12 -15 8 -3 12 9 12 41
0 50 -19 64 -21 16z"/>
<path d="M6280 405 c0 -33 4 -45 13 -42 7 2 12 20 12 42 0 22 -5 40 -12 43 -9
2 -13 -10 -13 -43z"/>
<path d="M6520 271 c0 -48 3 -61 15 -61 13 0 15 11 13 57 -4 81 -28 85 -28 4z"/>
<path d="M541 5454 c0 -11 3 -14 6 -6 3 7 2 16 -1 19 -3 4 -6 -2 -5 -13z"/>
<path d="M551 5384 c0 -11 3 -14 6 -6 3 7 2 16 -1 19 -3 4 -6 -2 -5 -13z"/>
<path d="M751 4330 c-2 -44 32 -275 41 -285 6 -6 8 8 7 35 -1 25 2 56 5 70 5
21 5 22 -3 5 -7 -14 -9 0 -5 50 2 42 1 62 -4 51 -8 -19 -9 -19 -16 -1 -4 11
-2 22 6 27 9 5 9 11 3 16 -6 4 -16 18 -22 32 l-12 25 0 -25z"/>
<path d="M861 3884 c0 -11 3 -14 6 -6 3 7 2 16 -1 19 -3 4 -6 -2 -5 -13z"/>
<path d="M1193 3824 c3 -4 -1 -13 -9 -21 -21 -22 -13 -49 14 -46 14 2 28 -6
38 -22 17 -25 50 -35 41 -12 -3 9 8 11 42 10 l46 -2 -43 10 c-23 6 -40 14 -37
20 4 5 -4 9 -17 9 -30 0 -44 10 -52 38 -4 12 -12 22 -18 22 -6 0 -9 -3 -5 -6z"/>
<path d="M1201 3724 c0 -11 3 -14 6 -6 3 7 2 16 -1 19 -3 4 -6 -2 -5 -13z"/>
<path d="M830 3704 c0 -12 9 -29 20 -39 20 -18 21 -18 14 1 -4 10 -13 28 -21
39 -13 19 -13 19 -13 -1z"/>
<path d="M1095 3670 c-18 -19 -17 -20 3 -20 15 0 22 6 22 20 0 11 -2 20 -3 20
-2 0 -12 -9 -22 -20z"/>
<path d="M7248 3060 c3 -24 9 -40 17 -40 8 0 14 16 17 40 3 35 1 40 -17 40
-18 0 -20 -5 -17 -40z"/>
<path d="M7360 2960 c0 -5 5 -10 10 -10 6 0 10 5 10 10 0 6 -4 10 -10 10 -5 0
-10 -4 -10 -10z"/>
<path d="M7277 2914 c6 -17 44 -15 51 4 2 8 -7 12 -27 12 -23 0 -29 -4 -24
-16z"/>
<path d="M7418 2853 c7 -3 16 -2 19 1 4 3 -2 6 -13 5 -11 0 -14 -3 -6 -6z"/>
<path d="M973 2345 c0 -22 2 -30 4 -17 2 12 2 30 0 40 -3 9 -5 -1 -4 -23z"/>
<path d="M981 2284 c0 -11 3 -14 6 -6 3 7 2 16 -1 19 -3 4 -6 -2 -5 -13z"/>
<path d="M1041 1223 c-1 -16 5 -23 17 -23 10 0 13 3 6 8 -6 4 -14 14 -17 22
-4 10 -6 8 -6 -7z"/>
<path d="M978 1163 c12 -2 32 -2 45 0 12 2 2 4 -23 4 -25 0 -35 -2 -22 -4z"/>
</g>
</svg>
